<svg xmlns="http://www.w3.org/2000/svg" viewBox="0 0 900 470" font-family="Arial, sans-serif">
  <!-- Background -->
  <rect width="900" height="470" fill="#f0f4f0"/>

  <!-- Title -->
  <text x="450" y="38" text-anchor="middle" fill="#1a1a1a" font-size="24" font-weight="bold">STRETTOIA ASIMMETRICA A DESTRA</text>
  <text x="450" y="60" text-anchor="middle" fill="#555" font-size="15">Restringimento della carreggiata dal lato destro</text>

  <!-- === ROAD === -->

  <!-- SECTION 1: Normal road (x=80 to x=350) -->
  <rect x="80" y="90" width="270" height="55" fill="#555"/>
  <line x1="80" y1="92" x2="350" y2="92" stroke="#fff" stroke-width="2"/>
  <line x1="80" y1="145" x2="350" y2="145" stroke="#fff" stroke-width="2.5" stroke-dasharray="20,14"/>
  <rect x="80" y="145" width="270" height="55" fill="#555"/>
  <line x1="80" y1="198" x2="350" y2="198" stroke="#fff" stroke-width="2"/>

  <!-- SECTION 2: Transition (x=350 to x=480) -->
  <rect x="350" y="90" width="130" height="55" fill="#555"/>
  <line x1="350" y1="92" x2="480" y2="92" stroke="#fff" stroke-width="2"/>
  <line x1="350" y1="145" x2="480" y2="145" stroke="#fff" stroke-width="2.5" stroke-dasharray="20,14"/>
  <polygon points="350,145 480,145 480,175 350,198" fill="#555"/>
  <line x1="350" y1="198" x2="480" y2="175" stroke="#fff" stroke-width="2"/>

  <!-- SECTION 3: Narrow road (x=480 to x=820) -->
  <rect x="480" y="90" width="340" height="55" fill="#555"/>
  <line x1="480" y1="92" x2="820" y2="92" stroke="#fff" stroke-width="2"/>
  <line x1="480" y1="145" x2="820" y2="145" stroke="#fff" stroke-width="2.5" stroke-dasharray="20,14"/>
  <rect x="480" y="145" width="340" height="30" fill="#555"/>
  <line x1="480" y1="175" x2="820" y2="175" stroke="#fff" stroke-width="2"/>

  <!-- Obstruction area -->
  <polygon points="350,198 480,175 820,175 820,198" fill="#c4a882" stroke="#a08060" stroke-width="1"/>
  <g opacity="0.2">
    <line x1="400" y1="195" x2="430" y2="178" stroke="#888" stroke-width="1.5"/>
    <line x1="450" y1="188" x2="475" y2="177" stroke="#888" stroke-width="1.5"/>
    <line x1="530" y1="198" x2="530" y2="176" stroke="#888" stroke-width="1.5"/>
    <line x1="600" y1="198" x2="600" y2="176" stroke="#888" stroke-width="1.5"/>
    <line x1="670" y1="198" x2="670" y2="176" stroke="#888" stroke-width="1.5"/>
    <line x1="740" y1="198" x2="740" y2="176" stroke="#888" stroke-width="1.5"/>
  </g>

  <!-- Direction arrows -->
  <g opacity="0.4">
    <polygon points="200,110 180,115 200,120" fill="#fff"/>
    <polygon points="650,110 630,115 650,120" fill="#fff"/>
    <polygon points="250,165 270,170 250,175" fill="#fff"/>
  </g>

  <!-- RED car B — BOTTOM lane, going RIGHT → (must YIELD, obstruction on its side) -->
  <g transform="translate(200, 170)">
    <rect x="-22" y="-12" width="44" height="24" rx="6" fill="#dc2626" stroke="#991b1b" stroke-width="1.5"/>
    <rect x="10" y="-9" width="8" height="18" rx="2" fill="#fca5a5" opacity="0.7"/>
  </g>
  <circle cx="200" cy="155" r="11" fill="#dc2626"/>
  <text x="200" y="160" text-anchor="middle" fill="#fff" font-size="14" font-weight="bold">B</text>
  <rect x="216" y="160" width="50" height="18" rx="3" fill="#000" opacity="0.4"/>
  <text x="241" y="174" text-anchor="middle" fill="#fca5a5" font-size="13" font-weight="bold">CEDE</text>

  <!-- GREEN car A — TOP lane, going LEFT ← (has PRIORITY, clear path) -->
  <g transform="translate(600, 115)">
    <rect x="-22" y="-12" width="44" height="24" rx="6" fill="#16a34a" stroke="#15803d" stroke-width="1.5"/>
    <rect x="-18" y="-9" width="8" height="18" rx="2" fill="#86efac" opacity="0.7"/>
  </g>
  <circle cx="600" cy="100" r="11" fill="#16a34a"/>
  <text x="600" y="105" text-anchor="middle" fill="#fff" font-size="14" font-weight="bold">A</text>
  <rect x="616" y="100" width="55" height="18" rx="3" fill="#000" opacity="0.4"/>
  <text x="643" y="114" text-anchor="middle" fill="#86efac" font-size="13" font-weight="bold">PASSA</text>

  <!-- === VERTICAL WIDTH BRACKETS === -->

  <!-- Normal width — left side -->
  <line x1="65" y1="90" x2="75" y2="90" stroke="#2563eb" stroke-width="1.5"/>
  <line x1="65" y1="198" x2="75" y2="198" stroke="#2563eb" stroke-width="1.5"/>
  <line x1="68" y1="90" x2="68" y2="198" stroke="#2563eb" stroke-width="2"/>
  <polygon points="64,96 68,90 72,96" fill="#2563eb"/>
  <polygon points="64,192 68,198 72,192" fill="#2563eb"/>
  <text x="46" y="148" text-anchor="middle" fill="#2563eb" font-size="13" font-weight="bold" transform="rotate(-90, 46, 148)">Larghezza normale</text>

  <!-- Narrow width — right side -->
  <line x1="830" y1="90" x2="840" y2="90" stroke="#e65100" stroke-width="1.5"/>
  <line x1="830" y1="175" x2="840" y2="175" stroke="#e65100" stroke-width="1.5"/>
  <line x1="837" y1="90" x2="837" y2="175" stroke="#e65100" stroke-width="2"/>
  <polygon points="833,96 837,90 841,96" fill="#e65100"/>
  <polygon points="833,169 837,175 841,169" fill="#e65100"/>
  <text x="859" y="138" text-anchor="middle" fill="#e65100" font-size="13" font-weight="bold" transform="rotate(90, 859, 138)">Zona ristretta</text>

  <!-- Rules box -->
  <rect x="80" y="230" width="740" height="165" rx="10" fill="#fff" stroke="#ddd" stroke-width="1.5"/>
  <text x="450" y="262" text-anchor="middle" fill="#1a1a1a" font-size="18" font-weight="bold">Regole nella strettoia</text>

  <g transform="translate(120, 280)">
    <circle cx="14" cy="12" r="14" fill="#dc2626"/>
    <text x="14" y="17" text-anchor="middle" fill="#fff" font-size="15" font-weight="bold">1</text>
    <text x="40" y="17" fill="#333" font-size="14">Chi ha l'ostacolo dalla sua parte <tspan font-weight="bold">DEVE cedere il passo</tspan></text>
  </g>

  <g transform="translate(120, 318)">
    <circle cx="14" cy="12" r="14" fill="#16a34a"/>
    <text x="14" y="17" text-anchor="middle" fill="#fff" font-size="15" font-weight="bold">2</text>
    <text x="40" y="17" fill="#333" font-size="14">Chi viene dal senso opposto (corsia libera) <tspan font-weight="bold">ha la precedenza</tspan></text>
  </g>

  <g transform="translate(120, 356)">
    <circle cx="14" cy="12" r="14" fill="#f59e0b"/>
    <text x="14" y="17" text-anchor="middle" fill="#fff" font-size="15" font-weight="bold">!</text>
    <text x="40" y="17" fill="#333" font-size="14">Rallentare e prepararsi a fermarsi prima della strettoia (Art. 148 CdS)</text>
  </g>
</svg>